HIERARCHY
ROOT Hips
{
	OFFSET 0.000000 0.000000 0.000000
	CHANNELS 6 Xposition Yposition Zposition Zrotation Yrotation Xrotation 
	JOINT LHipJoint
	{
		OFFSET 0.000000 0.000000 0.000000
		CHANNELS 3 Zrotation Yrotation Xrotation
		JOINT LeftUpLeg
		{
			OFFSET 1.363060 -1.794630 0.839290
			CHANNELS 3 Zrotation Yrotation Xrotation
			JOINT LeftLeg
			{
				OFFSET 2.448110 -6.726130 0.000000
				CHANNELS 3 Zrotation Yrotation Xrotation
				JOINT LeftFoot
				{
					OFFSET 2.562200 -7.039590 0.000000
					CHANNELS 3 Zrotation Yrotation Xrotation
					JOINT LeftToeBase
					{
						OFFSET 0.157640 -0.433110 2.322550
						CHANNELS 3 Zrotation Yrotation Xrotation
						End Site
						{
							OFFSET 0.000000 0.000000 0.000000
						}
					}
				}
			}
		}
	}
	JOINT RHipJoint
	{
		OFFSET 0.000000 0.000000 0.000000
		CHANNELS 3 Zrotation Yrotation Xrotation
		JOINT RightUpLeg
		{
			OFFSET -1.305520 -1.794630 0.839290
			CHANNELS 3 Zrotation Yrotation Xrotation
			JOINT RightLeg
			{
				OFFSET -2.542530 -6.985550 0.000000
				CHANNELS 3 Zrotation Yrotation Xrotation
				JOINT RightFoot
				{
					OFFSET -2.568260 -7.056230 0.000000
					CHANNELS 3 Zrotation Yrotation Xrotation
					JOINT RightToeBase
					{
						OFFSET -0.164730 -0.452590 2.363150
						CHANNELS 3 Zrotation Yrotation Xrotation
						End Site
						{
							OFFSET 0.000000 0.000000 0.000000
						}
					}
				}
			}
		}
	}
	JOINT LowerBack
	{
		OFFSET 0.000000 0.000000 0.000000
		CHANNELS 3 Zrotation Yrotation Xrotation
		JOINT Spine
		{
			OFFSET 0.028270 2.035590 -0.193380
			CHANNELS 3 Zrotation Yrotation Xrotation
			JOINT Spine1
			{
				OFFSET 0.056720 2.048850 -0.042750
				CHANNELS 3 Zrotation Yrotation Xrotation
				JOINT Neck
				{
					OFFSET 0.000000 0.000000 0.000000
					CHANNELS 3 Zrotation Yrotation Xrotation
					JOINT Neck1
					{
						OFFSET -0.054170 1.746240 0.172020
						CHANNELS 3 Zrotation Yrotation Xrotation
						JOINT Head
						{
							OFFSET 0.104070 1.761360 -0.123970
							CHANNELS 3 Zrotation Yrotation Xrotation
							End Site
							{
								OFFSET 0.000000 0.000000 0.000000
							}
						}
					}
				}
				JOINT LeftShoulder
				{
					OFFSET 0.000000 0.000000 0.000000
					CHANNELS 3 Zrotation Yrotation Xrotation
					JOINT LeftArm
					{
						OFFSET 3.362410 1.200890 -0.311210
						CHANNELS 3 Zrotation Yrotation Xrotation
						JOINT LeftForeArm
						{
							OFFSET 4.983000 -0.000000 -0.000000
							CHANNELS 3 Zrotation Yrotation Xrotation
							JOINT LeftHand
							{
								OFFSET 3.483560 -0.000000 -0.000000
								CHANNELS 3 Zrotation Yrotation Xrotation
								JOINT LeftFingerBase
								{
									OFFSET 0.000000 0.000000 0.000000
									CHANNELS 3 Zrotation Yrotation Xrotation
									JOINT LeftHandIndex1
									{
										OFFSET 0.715260 -0.000000 -0.000000
										CHANNELS 3 Zrotation Yrotation Xrotation
										End Site
										{
											OFFSET 0.000000 0.000000 0.000000
										}
									}
								}
								JOINT LThumb
								{
									OFFSET 0.000000 0.000000 0.000000
									CHANNELS 3 Zrotation Yrotation Xrotation
									End Site
									{
										OFFSET 0.000000 0.000000 0.000000
									}
								}
							}
						}
					}
				}
				JOINT RightShoulder
				{
					OFFSET 0.000000 0.000000 0.000000
					CHANNELS 3 Zrotation Yrotation Xrotation
					JOINT RightArm
					{
						OFFSET -3.136600 1.374050 -0.404650
						CHANNELS 3 Zrotation Yrotation Xrotation
						JOINT RightForeArm
						{
							OFFSET -5.241900 -0.000000 -0.000000
							CHANNELS 3 Zrotation Yrotation Xrotation
							JOINT RightHand
							{
								OFFSET -3.444170 -0.000000 -0.000000
								CHANNELS 3 Zrotation Yrotation Xrotation
								JOINT RightFingerBase
								{
									OFFSET 0.000000 0.000000 0.000000
									CHANNELS 3 Zrotation Yrotation Xrotation
									JOINT RightHandIndex1
									{
										OFFSET -0.622530 -0.000000 -0.000000
										CHANNELS 3 Zrotation Yrotation Xrotation
										End Site
										{
											OFFSET 0.000000 0.000000 0.000000
										}
									}
								}
								JOINT RThumb
								{
									OFFSET 0.000000 0.000000 0.000000
									CHANNELS 3 Zrotation Yrotation Xrotation
									End Site
									{
										OFFSET 0.000000 0.000000 0.000000
									}
								}
							}
						}
					}
				}
			}
		}
	}
}
MOTION
Frames: 11
Frame Time: 0.008333
-1.151092 18.819331 19.776436 179.974798 -3.409561 -148.274154 34.841363 9.873397 1.730297 -59.834603 -29.162029 -16.738611 6.224756 3.986465 11.814676 -2.223046 -18.859503 -43.246028 1.210800 -6.980600 -19.657900 -39.304879 -11.186637 3.604462 65.332756 30.735044 -16.460271 -5.924925 -4.376473 12.732313 -0.715857 14.163833 -46.443031 -0.394100 4.030700 -11.163100 -3.161681 0.168709 -30.072266 1.964491 -0.580325 -9.235684 -2.204997 -1.610877 21.755578 -16.484845 -2.225370 1.413480 22.798037 -7.676740 18.655408 2.407000 -1.970900 4.032500 18.269913 -4.876218 1.118319 -111.900605 -9.241950 17.700888 17.782046 -15.022220 -1.577251 0.815431 -0.208647 6.598976 23.488186 -12.589797 -5.180600 -7.125000 0.000000 0.000000 -3.189000 16.435300 2.159800 -10.158197 3.486134 1.730380 106.643572 -0.560340 2.154076 -24.769794 32.558006 -4.798203 0.093641 -4.459726 -4.313289 -8.013081 -63.245251 6.696200 7.125000 0.000000 0.000000 89.757600 -74.833900 -74.021700 
-1.152145 18.822778 19.777968 -179.989526 -3.374543 -148.474558 34.840315 9.889992 1.737568 -59.909468 -28.969775 -16.578690 6.229822 3.979846 11.847539 -2.267717 -18.947707 -43.202866 1.343700 -7.338900 -20.723500 -39.280584 -11.170956 3.600659 65.408240 30.592097 -16.302223 -5.926237 -4.368690 12.759190 -0.703479 14.215301 -46.423667 -0.395100 4.035800 -11.177500 -3.189536 0.114225 -30.073915 2.166078 -0.576658 -8.759495 -2.233663 -1.596836 21.598274 -16.348767 -2.332917 1.300167 22.379261 -7.669488 18.366936 2.336600 -2.023100 4.012300 18.202615 -4.826241 1.063647 -111.924473 -9.264762 17.722845 17.775277 -15.033225 -1.576791 0.817397 -0.208401 6.461104 23.642829 -12.518574 -5.189700 -7.125000 0.000000 0.000000 -3.079500 16.498000 2.081300 -10.202114 3.433391 1.669577 106.599675 -0.494403 2.162407 -24.706377 32.499249 -4.771356 0.097036 -4.461188 -4.259829 -7.803104 -63.140508 6.514700 7.125000 0.000000 0.000000 89.347900 -74.772800 -73.529900 
-1.151858 18.823735 19.778446 179.917850 -3.339423 -147.888922 34.772770 10.007150 1.331298 -59.929402 -28.905157 -16.784462 6.240803 3.956643 11.785382 -2.293314 -18.976504 -43.146971 1.247500 -7.081600 -19.957200 -39.366458 -11.410258 3.266211 65.416225 30.540239 -16.514231 -5.933924 -4.361956 12.740894 -0.772732 14.118790 -46.530014 -0.482400 4.453700 -12.356700 -2.920363 0.409704 -28.504500 1.065930 -0.542002 -13.460052 -1.772458 -1.714980 23.493958 -16.042469 -2.402377 1.935822 21.885544 -7.693344 18.191931 2.266700 -2.090900 3.994900 18.447934 -5.153890 1.397826 -112.085833 -9.039814 17.736850 17.774175 -14.947756 -1.584191 0.832944 -0.192553 6.423994 23.609692 -12.508534 -5.181900 -7.125000 0.000000 0.000000 -3.112500 16.492000 2.104000 -10.312138 3.772414 2.064051 106.735569 -0.688024 2.031056 -24.722374 32.461717 -4.791836 0.107652 -4.485648 -4.235553 -7.748781 -63.197944 6.482100 7.125000 0.000000 0.000000 89.451000 -74.757500 -73.619200 
-1.149656 18.822012 19.775861 -179.995208 -3.404137 -148.614628 34.867825 9.856542 1.770404 -59.951754 -28.919498 -16.435411 6.234842 3.935305 11.740952 -2.294806 -19.015647 -43.178818 1.077300 -6.597600 -18.528500 -39.293426 -11.116725 3.614808 65.470195 30.539060 -16.139379 -5.924277 -4.363964 12.675616 -0.956488 13.795662 -46.728035 -0.579200 4.873200 -13.547200 -3.285188 0.066057 -30.225241 2.266966 -0.579872 -8.180914 -2.135658 -1.599936 21.496693 -15.998644 -2.593644 1.146435 21.583303 -7.733500 17.773187 2.191300 -2.162200 3.971700 18.120821 -4.760887 0.978556 -111.971178 -9.329444 17.782560 17.750567 -15.005315 -1.567888 0.801539 -0.213159 6.474717 23.268215 -12.660661 -5.152700 -7.125000 0.000000 0.000000 -3.334800 16.391000 2.262100 -10.262365 3.370092 1.580192 106.557190 -0.409877 2.106189 -24.675251 32.500304 -4.757059 0.084124 -4.469198 -4.217326 -7.995249 -63.253630 6.678000 7.125000 0.000000 0.000000 89.756900 -74.826800 -74.013100 
-1.149081 18.819426 19.773850 179.996609 -3.450661 -148.435571 34.873732 9.863343 1.788051 -59.876846 -29.072957 -16.630479 6.226285 3.962226 11.778138 -2.276121 -18.978361 -43.238150 1.131200 -6.755200 -18.992200 -39.288089 -11.100174 3.667596 65.369228 30.767523 -16.336271 -5.917508 -4.387734 12.687181 -0.923383 13.782517 -46.650912 -0.505700 4.558500 -12.653400 -3.336979 0.035684 -30.354545 2.282690 -0.595838 -8.385541 -2.031395 -1.627947 21.723876 -15.628599 -2.615953 1.334943 20.634426 -7.479463 16.550620 2.280700 -2.245400 4.276600 18.054761 -4.773620 0.932669 -111.977151 -9.381135 17.650996 17.743762 -15.005609 -1.562447 0.789604 -0.219933 6.691717 22.960899 -12.833141 -5.143200 -7.125000 0.000000 0.000000 -3.547500 16.243000 2.418300 -10.364810 3.327295 1.536643 106.538005 -0.387461 2.180535 -24.638282 32.457009 -4.735882 0.072780 -4.481529 -4.275794 -8.349814 -63.423423 6.979900 7.125000 0.000000 0.000000 90.383200 -74.927300 -74.774000 
-1.150518 18.819043 19.774042 -179.963720 -3.401537 -148.329632 34.875516 9.914565 1.798501 -59.844683 -29.088127 -16.760285 6.222268 3.996310 11.842166 -2.243172 -18.905328 -43.271907 1.230400 -7.034800 -19.818400 -39.244595 -11.127635 3.664072 65.322382 30.782906 -16.481425 -5.919021 -4.389037 12.737414 -0.734582 14.110837 -46.459640 -0.420300 4.160900 -11.529700 -3.387555 -0.015829 -30.345111 2.515808 -0.566565 -8.638690 -2.064019 -1.629703 21.826387 -15.468131 -2.716365 1.352702 20.175053 -7.494512 16.253679 2.196700 -2.307600 4.241700 17.993989 -4.790433 0.924847 -112.022306 -9.400277 17.471936 17.708115 -14.959978 -1.551170 0.786630 -0.223551 6.825496 22.888073 -12.905447 -5.152700 -7.125000 0.000000 0.000000 -3.599400 16.175200 2.459100 -10.433202 3.320141 1.543308 106.501801 -0.432186 2.213164 -24.646359 32.454542 -4.733861 0.064557 -4.489041 -4.296516 -8.588101 -63.572292 7.186800 7.125000 0.000000 0.000000 90.944200 -74.990000 -75.426500 
-1.150613 18.819905 19.774616 -179.920496 -3.355602 -148.357468 34.892295 9.931510 1.828260 -59.830208 -29.085162 -16.760556 6.223028 4.009112 11.872818 -2.233775 -18.879418 -43.270167 1.246800 -7.079600 -19.951300 -39.212563 -11.116803 3.670953 65.318716 30.767643 -16.500630 -5.918327 -4.388762 12.767763 -0.666393 14.250037 -46.416103 -0.402900 4.075200 -11.288200 -3.452356 -0.079266 -30.413003 2.789835 -0.539884 -8.450287 -2.099117 -1.619560 21.803434 -15.302083 -2.829519 1.281000 19.737168 -7.507845 15.898568 2.113600 -2.370200 4.208500 17.919159 -4.771124 0.885414 -112.083133 -9.423211 17.503810 17.684448 -14.944530 -1.547835 0.791987 -0.221552 6.645121 23.128050 -12.798247 -5.170800 -7.125000 0.000000 0.000000 -3.432000 16.265500 2.337600 -10.495410 3.279634 1.507126 106.468458 -0.395552 2.166207 -24.642543 32.466929 -4.733374 0.064124 -4.489608 -4.211505 -8.438246 -63.539189 7.060400 7.125000 0.000000 0.000000 90.797800 -74.945600 -75.225000 
-1.149656 18.819905 19.773755 -179.950211 -3.356641 -148.360491 34.879902 9.921297 1.807410 -59.846901 -29.038267 -16.747937 6.225973 3.998581 11.854433 -2.278762 -18.949071 -43.221790 1.314800 -7.262800 -20.496300 -39.237597 -11.092783 3.721811 65.280407 30.888672 -16.519802 -5.915246 -4.400843 12.758250 -0.724812 14.108922 -46.443092 -0.394200 4.031200 -11.164500 -3.418728 -0.048392 -30.479512 2.601808 -0.572041 -8.335812 -1.992104 -1.633930 21.828014 -15.037433 -2.930524 1.297884 19.290786 -7.520680 15.503588 2.022100 -2.436100 4.159100 17.904426 -4.752474 0.860488 -112.096510 -9.394554 17.521286 17.718574 -15.001321 -1.557080 0.790228 -0.216460 6.706583 23.136132 -12.596560 -5.095200 -7.125000 0.000000 0.000000 -3.416100 16.475200 2.311200 -10.507929 3.260576 1.473819 106.474355 -0.376150 2.168717 -24.624322 32.463645 -4.729607 0.064855 -4.492004 -4.157834 -8.330191 -63.562665 6.972900 7.125000 0.000000 0.000000 90.862300 -74.909300 -75.251800 
-1.150326 18.820097 19.772893 179.958149 -3.406901 -148.412205 34.834967 9.900862 1.766904 -59.938738 -28.910389 -16.679953 6.225111 3.978898 11.829808 -2.354935 -19.073187 -43.130367 1.404700 -7.496900 -21.195900 -39.294881 -11.100988 3.742780 65.273489 30.864289 -16.424644 -5.927079 -4.376748 12.678349 -0.770083 14.026266 -46.462218 -0.363400 3.872300 -10.717600 -3.308795 0.055688 -30.472918 2.098518 -0.638700 -8.225510 -1.794162 -1.657209 21.819528 -14.739040 -3.046534 1.303243 18.857762 -7.556587 15.139087 1.928400 -2.508500 4.111300 17.930309 -4.715591 0.839522 -112.058133 -9.373624 17.452040 17.760583 -15.057225 -1.562710 0.777752 -0.208336 7.110280 22.736362 -12.273561 -4.875400 -7.125000 0.000000 0.000000 -3.671700 16.848400 2.455000 -10.479019 3.254983 1.442787 106.493268 -0.388108 2.181027 -24.604855 32.458601 -4.724751 0.065484 -4.494609 -4.166914 -8.326790 -63.617339 6.973300 7.125000 0.000000 0.000000 91.056500 -74.903000 -75.446900 
-1.150996 18.820288 19.773659 179.906964 -3.419467 -148.451695 34.811821 9.866605 1.775985 -59.960489 -28.945607 -16.648771 6.219239 3.977087 11.828745 -2.342510 -19.063903 -43.145551 1.356200 -7.371900 -20.821800 -39.323916 -11.108717 3.752443 65.261573 30.849352 -16.390780 -5.930679 -4.374131 12.694359 -0.771273 14.058299 -46.513145 -0.364900 3.880400 -10.740400 -3.238942 0.133859 -30.488192 1.787446 -0.662290 -8.068828 -1.651725 -1.659079 21.786539 -14.455321 -3.172976 1.256363 18.403587 -7.596357 14.779691 1.832800 -2.581600 4.070700 17.930903 -4.673684 0.809539 -112.033203 -9.417152 17.408359 17.768957 -15.068798 -1.559761 0.769204 -0.196895 7.417672 22.411461 -11.837053 -4.634800 -7.125000 0.000000 0.000000 -3.875600 17.331100 2.551000 -10.476494 3.238962 1.406743 106.505393 -0.348725 2.133789 -24.554341 32.424626 -4.705771 0.061378 -4.495676 -4.168291 -8.378488 -63.481885 7.004200 7.125000 0.000000 0.000000 90.556000 -74.931400 -74.958000 
-1.150518 18.820288 19.774233 179.928158 -3.377161 -148.477607 34.819299 9.845311 1.788419 -59.923661 -29.007594 -16.614987 6.221752 3.974184 11.807304 -2.273511 -18.963940 -43.215221 1.185500 -6.909800 -19.448300 -39.319382 -11.106636 3.748169 65.285354 30.857107 -16.393377 -5.920049 -4.396512 12.772617 -0.774936 14.063984 -46.543370 -0.398700 4.054200 -11.229200 -3.217544 0.150901 -30.461981 1.754891 -0.654066 -8.045230 -1.597445 -1.649952 21.788800 -14.183598 -3.265581 1.266865 17.887137 -7.600362 14.381666 1.735500 -2.644400 4.019500 17.891526 -4.655794 0.785612 -112.037069 -9.436777 17.301952 17.779059 -15.091992 -1.558507 0.760502 -0.187653 7.452767 22.058180 -11.581919 -4.459800 -7.125000 0.000000 0.000000 -4.107500 17.627100 2.677700 -10.513327 3.217745 1.384560 106.501205 -0.353913 2.159286 -24.539292 32.419029 -4.699945 0.059545 -4.495151 -4.220997 -8.470659 -63.302974 7.065400 7.125000 0.000000 0.000000 89.901400 -74.975200 -74.328100 
